<svg enable-background="new 0 0 110 150" viewBox="0 0 110 150" xmlns="http://www.w3.org/2000/svg"><path d="m58.1 86.1 2.2-2.9 4.2 5.2-4.5 2.2z" fill="#ffadad"/><path d="m68.4 92.9c-6.1-7.2-13.4-6.2-13.4-6.2l14.7-25.6c14.5-.3 16.5 8.5 16.5 8.5l2.6 5.7z" fill="#fae1bd"/><path d="m109.7 75.9-18.6 19c-6.7-7.4-23-2-23-2l17.9-23.3c8.4-1.9 17.3.4 23.7 6.3z" fill="#eacca7"/><path d="m78.2 28-5-8.6-29.6-1.6-4.3 13.8-8.5 10.3 11.9 7.4s3.4-4.1 5.3-3.9 6.9 3.5 8.6 2.8 6.7-7.6 6.7-7.6l3.7.4c-.3-1.4-.3-2.7 0-4.1.7-1.5 1.6-3 2.7-4.3l1.7-1.8z" fill="#ffadad"/><path d="m39.3 31.5-8.5 10.3 11.9 7.4s3.5-4.1 5.3-3.9c1 .1 3 1.1 4.8 1.9 0 0-6.8-6.6-7.3-14.7-.1-1.6-5.7-2.8-5.7-2.8z" opacity=".2"/><path d="m51.1 150h-51.1s2.7-25.9 4.3-33.8 3.3-34.6 7-49 11.3-20.1 11.3-20.1l4.1-8c19.8 4 17.9 14.4 17.9 14.4 8.1 12.4 6.5 96.5 6.5 96.5z" fill="#f16662"/><path d="m87.6 100.9s11.7-3.2 16.6-6.3 1.7-14.8 1.7-14.8-7.7 8.3-9.2 6 4.5-2.7 4.5-3.9-6.6.3-6.6.3c-3.1 3.8-8.1 12.4-8.1 12.4z" fill="#ffadad"/><path d="m59.6 85.5c3.6-1 4.9-9 4.9-9 2.9-1.4 5.3-5.3 5.3-5.3s-6.9.2-9.4 3.8c-2.8 4-2.8 6.8-2.8 6.8.1 1.2 1.3 3.9 2 3.7z" fill="#ffadad"/><path d="m53 96.9-5.2-10.2 9.8-4.9 4.5 8.3z" fill="#bf3a40"/><path d="m69.6 32.5c4.3 2.1 10.4-.3 10.7-3.5.3-3.1-3-5.8-3.8-11.9s-4.5-19.9-21.5-16.6-16.5 18.7-16.2 23.1-2.7 6.1 0 8.8 6.8 0 6.8 0v-5.5c0-3.5 3.8-4.4 5.5-1.9s0 7.4 0 7.4c4.3-.6 4.7-6.5 9.3-6.1s11.7-1 11.7-1z" fill="#3a3735"/><path d="m72.1 25.3-2.4 7.2c2.3 1 5 1 7.3 0 1.3-1.5 1.5-3.6.5-5.4-1.4-2.5-5.4-1.8-5.4-1.8z" opacity=".27"/><path d="m0 150h51s.2-21.2.1-35.4l-46.1-2.1c-.2 1.5-.4 2.7-.6 3.7-1.7 7.9-4.4 33.8-4.4 33.8z" fill="#d64a4c"/><path d="m32.1 70.1s1.1 58.8 19 79.9c0 0 .5-33.4-.4-56l-9.7-17.5z" opacity=".2"/><path d="m91.7 101.3s-34 18-41.6 16.7-13.1-27-16.4-38.5-1.6-22.7 4-24 9 4.1 10.9 10.6 9.6 32.1 9.6 32.1l30.2-6.4z" fill="#f16662"/></svg>