<svg viewBox="0 0 106.75 150" xmlns="http://www.w3.org/2000/svg"><path d="m61.75 65.34s-10.52-4.29-14.4 2.58 1.88 25.08-12.13 27.58-15.51 16.5-14.4 22.67c3.2 17.72 28.82 35.44 46.56 16.71s-4.29-31.4-5.93-40.88 9.39-22 .3-28.66z" fill="#323232"/><path d="m69.34 98c-.08-7.26 14.5-14.9-.7-29.69a1.2 1.2 0 0 0 -1.61-.1c-1.25 1-5.27 1.52-7.29 3.32-3.74 3.34-9.69 12.63-7.82 17.34 4 10-2.74 18.52-3.28 29.85-.43 11.64 18.52 23.19 27.71 20a9.65 9.65 0 0 0 6.12-6.37 8.43 8.43 0 0 0 -.56-6.65c-3.56-6.7-12.32-3.5-12.57-27.7z" fill="#323232"/><path d="m7.28 37.78c1.25 1.06 3.07 1.93 3.53 2.4.12.13 1.66 2 2.74 3.32a6.88 6.88 0 0 1 1.52 3.36 4.41 4.41 0 0 1 -.07 2.33s-1.86 1.12-3.05.34l-.88-2.77a8.14 8.14 0 0 0 -3.23-1c-2.29-.4-3.83-3-5.38-4.48-1-1-3.06-6.3-2.26-6.35s1.8 2.07 2.63 3.32a8 8 0 0 0 4 2.38c.18 0 .64.09.74-.1.31-.58-.93-1.34-1.43-1.94-.69-.84-.73-1.65-.45-2s.69.41 1.59 1.19z" fill="#fab9af"/><path d="m99.68 25.53c-1.18 1.14-2.92 2.16-3.34 2.66-.11.13-1.5 2.12-2.48 3.51a6.92 6.92 0 0 0 -1.25 3.47 4.5 4.5 0 0 0 .26 2.33s1.94 1 3.07.09l.67-2.83a8.15 8.15 0 0 1 3.14-1.2c2.25-.57 3.59-3.25 5-4.88.9-1 2.57-6.51 1.77-6.5s-1.62 2.17-2.39 3.47a8.16 8.16 0 0 1 -3.85 2.69c-.17.05-.62.14-.74-.05-.36-.55.82-1.41 1.27-2.05.62-.89.61-1.7.29-2s-.59.47-1.42 1.29z" fill="#fab9af"/><path d="m15.46 45.61 14.69 29.78c10.17 7.93 16.66 13.47 20.57 17a8.45 8.45 0 0 0 7.54 1.94 94.33 94.33 0 0 1 12.07-1.82 6.61 6.61 0 0 0 4.83-2.8c2.89-4.14 9-12.76 16.5-22.21l.51-32.79c1.11-1.46 4.56-.86 5.4.32 0 0 4.84 25.6 3.2 34-1.54 7.83-9.84 21.29-16 28.76a6.76 6.76 0 0 0 -.51 7.84 19.52 19.52 0 0 1 2.12 4.23 6.58 6.58 0 0 1 -.59 5c-1.49 2.68-1.88 3.79.23 8.35l7.98 21.52c.6 1.11 0 5.27-1.27 5.27h-36c-.78 0-.77-3.38-.52-4.12l1.64-5c.78-2.39 3-9.48 2.24-11.89-1.78-3.8-4.81-10.26-7.18-15.3a27.27 27.27 0 0 0 -8.57-10.42c-7.64-5.64-19.2-16.97-22.58-24.27-3.54-7.7-11.42-31.82-11.42-31.82.54-1.33 3.72-2.71 5.12-1.57z" fill="#ec6662"/><path d="m56.65 67c-5.52 1.54-6.48 6-4.57 13.34a15.34 15.34 0 0 0 4.15 6.53 5.63 5.63 0 0 1 1.69 4.07l-.07 4.44c.23 4 2.62 5.62 5.5 5.63a5.4 5.4 0 0 0 3.87-1.78c1.13-1.27.71-3.21 0-4.75l-.64-1.09a3 3 0 0 1 1.08-4.2 10.84 10.84 0 0 0 3.11-2.4c.73-.86 1.17-7.29-1.78-14-2.99-6.9-6.82-7.34-12.34-5.79z" fill="#fab9af"/><path d="m69.17 81.2a1.31 1.31 0 0 1 -.9 1.84 1.31 1.31 0 0 1 -1.55-.92l-1.23-5.45a.78.78 0 0 1 .11-.59.75.75 0 0 1 .49-.34.63.63 0 0 1 .71.35z" fill="#fa968c"/><path d="m55 80.76c.46 1.69 1 3.81-.46 4.23s-3.82-2.25-4.29-3.93.37-2.37 1.85-2.78 2.45.8 2.9 2.48z" fill="#fab9af"/><path d="m49.37 72.41c4.46-8.65 14-11.46 18.88-8.5 2.61 1.59 6.24 8.39.45 8.61a6.77 6.77 0 0 1 -4-1.19 1.94 1.94 0 0 0 -1.33-.27l-3.77 1.3a6 6 0 0 0 -3.73 7.53l.41 1.11a.67.67 0 0 1 -1 .79l-.23-.42a4.4 4.4 0 0 0 -2.79-2.19c-2.46-.63-5.56-1.59-2.89-6.77z" fill="#323232"/><g fill="#e2c5a0"><path d="m86.08 3.51-3.55 7.3-7.94 1.17 5.75 5.68-1.36 8.03 7.1-3.79 7.11 3.79-1.36-8.03 5.75-5.68-7.94-1.17z"/><path d="m52.83 0-3.6 7.3-8.06 1.17 5.83 5.68-1.38 8.03 7.21-3.79 7.2 3.79-1.37-8.03 5.83-5.68-8.06-1.17z"/><path d="m24.11 14.6-3.6 7.3-8.06 1.17 5.83 5.68-1.37 8.03 7.2-3.79 7.21 3.79-1.38-8.03 5.83-5.68-8.06-1.17z"/></g></svg>