<svg viewBox="0 0 80.31 150" xmlns="http://www.w3.org/2000/svg"><path d="m23.79 149.69 3.38-21.9s30.46-8.59 36.68-1.79c5.45 6 13.72 23.66 11.4 23.72-22.38.62-51.46-.03-51.46-.03z" fill="#d44a4c"/><ellipse cx="44.86" cy="34.93" fill="#3a3735" rx="17.03" ry="14.91"/><path d="m50.92 132.8-10.77.32c-7.27.22-13.6-1.36-14.35-8.6l-10.34-53.1c-.14-3.83 2.91-7.58 6.3-9.37 0 0 29.92-5.54 41.57 1.06l.92.32a10.8 10.8 0 0 1 5.51 8.92l-5.56 51.65c-.6 7-6.2 8.58-13.28 8.8z" fill="#ef6662"/><path d="m67.85 66.75c-.42.73-.87 1.43-1.35 2.12a32.48 32.48 0 0 0 -5.93 17.84c-.12 5.6.45 11.46-1.24 15.15-2.07 4.5-9.6 4.51-13.33 1.25l-.12-.11a5.72 5.72 0 0 0 -7.6-.35 11.65 11.65 0 0 1 -7.89 2.77 11.46 11.46 0 0 1 -9.08-4l4.49 23.06c.75 7.24 7.08 8.82 14.35 8.6l10.77-.32c7.08-.18 12.68-1.76 13.28-8.76l5.56-51.61a9.89 9.89 0 0 0 -1.91-5.64z" fill="#d44a4c"/><path d="m53.15 79c1.67 9.67 15 47.25 20.67 46.28s-.18-37.19-1.82-46.86-5.72-16.42-11.37-15.5-9.15 6.41-7.48 16.08z" fill="#ef6662"/><path d="m51.12 45.39h-14a11.21 11.21 0 0 1 .66 6.21l-1.35 7.23c-.82 6.67 1.9 10.09 5.72 11.11a6.23 6.23 0 0 0 5.64-1.58c1.85-1.68 1.85-5 1.35-7.76l-.55-2c-.77-2.6 2.53-13.21 2.53-13.21z" fill="#fab9af"/><g fill="#fa968c"><path d="m51.12 45.39h-14a11.21 11.21 0 0 1 .66 6.21l-.5 2.65a27.64 27.64 0 0 0 4.72 4.52 4.22 4.22 0 0 0 5.33-.15c.35-.28.72-.61 1.11-.95-.03-3.6 2.68-12.28 2.68-12.28z"/><path d="m34.73 35.87c.13 2.19.26 5-1.67 5.07s-4.06-3.75-4.25-5.94 1.07-2.81 3-2.93 2.78 1.6 2.92 3.8z"/><path d="m54.31 35.87c-.14 2.19-.26 5 1.67 5.07s4.11-3.75 4.25-5.95-1.07-2.81-3-2.93-2.78 1.61-2.92 3.81z"/></g><path d="m57.44 35.89c0 9.7-6.38 16.33-10.1 19.37a4.22 4.22 0 0 1 -5.33.15c-3.79-2.81-10.19-9.08-10.19-19.41 0-11.37 6.18-16 12.91-16s12.71 4.53 12.71 15.89z" fill="#fab9af"/><path d="m46.67 43.34a2.05 2.05 0 0 1 -2.26 2.27 2.06 2.06 0 0 1 -1.84-2.14l.9-8.71a1.17 1.17 0 0 1 .45-.82 1.21 1.21 0 0 1 .9-.27 1 1 0 0 1 .88.88z" fill="#fa968c"/><path d="m59.2 21.38a.69.69 0 0 1 0-.88 6.35 6.35 0 0 0 -1-8.75 2.93 2.93 0 0 1 -.94-2.85 5.51 5.51 0 0 0 -.12-2.6 5.55 5.55 0 0 0 -6.37-3.87 4.58 4.58 0 0 1 -4-.94 5.55 5.55 0 0 0 -8.33.88 5.43 5.43 0 0 0 -1.37 3.4 3.63 3.63 0 0 1 -1.07 2.66 4.51 4.51 0 0 0 -1.48 3.35 4.44 4.44 0 0 0 .63 2.29 3.15 3.15 0 0 1 -.95 4.1 17 17 0 0 0 -1.58 1.28c-4.51 4.08-3.71 12.31-3.71 12.31a3.84 3.84 0 0 1 2.91 3.72v3.52a.63.63 0 0 0 .64.64.65.65 0 0 0 .64-.64l.1-2.31a5.8 5.8 0 0 1 4.27-5.27 10.25 10.25 0 0 0 4.06-2.16 17.94 17.94 0 0 0 2.84-3.26 4.58 4.58 0 0 1 5.35-1.79 11.63 11.63 0 0 1 5.28 5.05 10.88 10.88 0 0 1 1.43 5.43v4.6a.64.64 0 0 0 1.28 0v-2.29a3.58 3.58 0 0 1 .79-2.19c2.37-3.08 4.07-9.31.7-13.43z" fill="#3a3735"/><path d="m22.6 108.93s2.38-4.63 3.81-4.6l1.83 4.23c1.92-.35 3.87-.73 5.82-.91 3.3-.31 4.78 1.88 4.56 4.43a1.18 1.18 0 0 1 -1.32 1.3 47.57 47.57 0 0 0 -11.94 3.53c-1.71.83-2.56 1.64-4.32.6-1-.57-1.93-1.17-2.89-1.77l-3.79-2.41z" fill="#fab9af"/><path d="m57.48 108.93s-2.38-4.63-3.8-4.6l-1.83 4.23c-1.93-.35-3.88-.73-5.83-.91-3.3-.31-4.77 1.88-4.56 4.43a1.72 1.72 0 0 0 .22.81 1.55 1.55 0 0 0 1.11.49 47.82 47.82 0 0 1 11.94 3.53c1.7.83 2.55 1.64 4.31.6 1-.57 1.93-1.17 2.89-1.77 1.27-.8 2.54-1.6 3.79-2.41z" fill="#fab9af"/><path d="m25.4 62c-5.46-1.8-10.4 4.38-13.4 13.73a12.86 12.86 0 0 0 -1.46 3.32c-1.37 4.8-4.95 12.95-7.94 23.95-1.29 4.76-.35 9.79-2.21 15.6s3.26 8 7.68 6.79 14.14-7.19 14.14-7.19l.39-9.25h-3.08c3-11.94 9.08-23.84 11.06-30 2.99-9.39.28-15.26-5.18-16.95z" fill="#ef6662"/><path d="m19.23 109.87-14.74-1a.47.47 0 0 1 -.44-.49.48.48 0 0 1 .5-.44l14.74 1a.48.48 0 0 1 .44.5.47.47 0 0 1 -.5.43z" fill="#c55469"/><path d="m6 124.9a13.81 13.81 0 0 1 -3.35-.41.46.46 0 1 1 .23-.9c5.58 1.41 10.12-1.26 14.12-3.59.68-.39 1.35-.78 2-1.14a.46.46 0 0 1 .63.19.47.47 0 0 1 -.18.63c-.66.36-1.32.74-2 1.13-3.33 1.95-7.04 4.09-11.45 4.09z" fill="#c55469"/><path d="m66.94 74.32c3.06 2.11 5.06 7.9 6.47 12.68s2.83 8 4.82 17c1.07 4.81-.17 9.61 1.69 15.42s-3.25 8-7.67 6.79-15-8.07-15-8.07l.51-8.37 4.8.68z" fill="#ef6662"/><path d="m60.26 110.69a.47.47 0 0 1 0-.93l14.75-1a.47.47 0 0 1 .06.93l-14.75 1z" fill="#c55469"/><path d="m73.51 125.72c-4.43 0-8.14-2.14-11.49-4.08-.67-.39-1.33-.77-2-1.13a.47.47 0 0 1 .44-.82c.66.36 1.33.75 2 1.14 4 2.32 8.56 5 14.15 3.58a.46.46 0 1 1 .22.9 13.75 13.75 0 0 1 -3.32.41z" fill="#c55469"/><rect fill="#e3d9d3" height="5.94" rx="1.94" width="25.1" x="35.64" y="90.38"/><path d="m60.8 91.33h-24.14a.48.48 0 0 1 -.48-.48.47.47 0 0 1 .48-.47h24.14a.47.47 0 0 1 .48.47.48.48 0 0 1 -.48.48z" fill="#bea487"/><path d="m60.8 95.4h-24.14a.48.48 0 0 1 -.48-.48.47.47 0 0 1 .48-.47h24.14a.47.47 0 0 1 .48.47.48.48 0 0 1 -.48.48z" fill="#bea487"/><rect fill="#d4d3cf" height="5.94" rx="1.94" width="34.67" x="28.17" y="105.02"/><rect fill="#bea487" height=".65" rx=".32" width="35.13" x="28.17" y="105.02"/><rect fill="#bea487" height=".65" rx=".32" width="35.13" x="28.17" y="110.26"/><path d="m32.23 96.32h26.6a1.71 1.71 0 0 1 1.72 1.68 1.71 1.71 0 0 1 -1.71 1.71h-26.61a1.71 1.71 0 0 1 -1.72-1.71 1.72 1.72 0 0 1 1.72-1.72z" fill="#e3d9d3"/><rect fill="#bea487" height=".53" rx=".26" width="30.03" x="30.79" y="96.32"/><rect fill="#bea487" height=".53" rx=".26" width="30.03" x="30.79" y="99.21"/><rect fill="#d4d3cf" height=".95" rx=".47" width="29" x="31.16" y="95.37"/><rect fill="#e3d9d3" height="4.69" rx="1.94" width="29.81" x="31.27" y="100.33"/><path d="m61 105h-29.26a.47.47 0 0 1 -.47-.48.47.47 0 0 1 .47-.47h29.26a.48.48 0 0 1 .48.47.48.48 0 0 1 -.48.48z" fill="#e5c4a3"/><path d="m61 100.7h-29.26a.48.48 0 0 1 -.47-.48.47.47 0 0 1 .47-.47h29.26a.48.48 0 0 1 .48.47.49.49 0 0 1 -.48.48z" fill="#e5c4a3"/><rect fill="#bea487" height="5.94" rx="1.94" width="25.1" x="19.58" y="90.38"/><rect fill="#bea487" height="5.94" rx="1.94" width="35.13" x="16.3" y="105.02"/><path d="m20.36 96.32h26.64a1.71 1.71 0 0 1 1.67 1.68 1.71 1.71 0 0 1 -1.67 1.75h-26.64a1.71 1.71 0 0 1 -1.72-1.75 1.72 1.72 0 0 1 1.72-1.72z" fill="#bea487"/><rect fill="#e5c4a3" height=".95" rx=".47" width="29" x="19.28" y="95.37"/><rect fill="#e5c4a3" height="5.27" rx="1.94" width="30.2" x="19.39" y="99.75"/><path d="m21.73 99.7h2.99v5.29h-2.99z" fill="#d3b497"/><path d="m26.27 100.65h.22v3.53h-.22z" fill="#d3b497"/><path d="m19.24 108.04h25.46v.67h-25.46z" fill="#957e65"/><path d="m23.11 97.21h.22v1.36h-.22z" fill="#957e65"/><path d="m21.84 95.35h.67v.95h-.67z" fill="#d3b497"/><path d="m26.2 92.67h16.15v.67h-16.15z" fill="#957e65"/><rect fill="#d4d3cf" height="5.94" rx="1.94" width="34.67" x="23.2" y="85.12"/><rect fill="#bea487" height=".65" rx=".32" width="35.13" x="23.2" y="85.12"/><rect fill="#bea487" height=".65" rx=".32" width="35.13" x="23.2" y="90.36"/><rect fill="#e3d9d3" height="4.69" rx="1.94" width="29.81" x="30.27" y="80.43"/><path d="m60 85.12h-29.25a.48.48 0 0 1 -.48-.48.47.47 0 0 1 .48-.47h29.25a.47.47 0 0 1 .47.47.48.48 0 0 1 -.47.48z" fill="#e5c4a3"/><path d="m60 80.79h-29.25a.47.47 0 0 1 -.48-.47.47.47 0 0 1 .48-.47h29.25a.47.47 0 0 1 .47.47.47.47 0 0 1 -.47.47z" fill="#e5c4a3"/><rect fill="#e5c4a3" height="5.27" rx="1.94" width="30.2" x="18.4" y="79.85"/><path d="m20.73 79.79h2.99v5.29h-2.99z" fill="#d3b497"/><path d="m25.28 80.74h.22v3.53h-.22z" fill="#d3b497"/></svg>