<svg viewBox="0 0 111.87 150" xmlns="http://www.w3.org/2000/svg"><path d="m32 63.56 27.11 29.15 31.61-16.71 5 7.14-29.36 26.71a11.34 11.34 0 0 1 -15.63-.33l-23.14-27.37z" fill="#d44a4c"/><path d="m34 14.53 3 17.32-3.15.59s2.21 11.05-1.18 12.56c-2.74 1.19-6.79.15-6.79.15v5.85h-14.14l1.45-10.36-1.45-25.64z" fill="#ffadad"/><path d="m19 57.43 15.31 2s7.44 14.32 9.14 29.94 7.21 30.8 9.23 41.14c1.06 5.44 1.06 15.15 2.14 19.47h-51.35c-7.53 0-.54-8.51 0-16.16 1-14.33-8.62-53.5.92-74.23a54.31 54.31 0 0 1 14.61-2.16z" fill="#ef6662"/><path d="m53.76 139.21c-.41-2.2-.81-6.17-1.06-8.68-1.1-10.75-5.7-16.53-7.58-26.93l-27.75-16.6z" fill="#212226" opacity=".2"/><path d="m94.79 114.37h-42.95l17.08-76.78h42.96z" fill="#fae1bd"/><path d="m60.04 114.37h10.74l27.93-29.01-35.33 15.45z" fill="#212226" opacity=".2"/><g fill="none" stroke-miterlimit="10"><path d="m71.69 47.5h33.34" stroke="#ed7e7e" stroke-width=".5"/><path d="m70.65 52.05h33.34" stroke="#ed7e7e" stroke-width=".5"/><path d="m69.61 56.6h33.34" stroke="#ed7e7e" stroke-width=".5"/><path d="m68.57 61.16h33.34" stroke="#ed7e7e" stroke-width=".5"/><path d="m67.53 65.71h33.34" stroke="#ed7e7e" stroke-width=".5"/><path d="m66.49 70.27h33.34" stroke="#ed7e7e" stroke-width=".5"/><path d="m65.45 74.82h33.34" stroke="#ed7e7e" stroke-width=".5"/><path d="m93.52 52.32 3.52 27.42" stroke="#707482"/></g><path d="m19.54 23.94s5.9.56 11.24-6.79c0 0 10.18 3 10-5.9-.16-10.25-11.29-14.14-25.12-8.97-10.47 3.91-9.53 12.25-9.53 12.25s-3.36 2.3-3.58 7.72c-.28 7.17 3 13.06 10.64 18.39 0 0 8.57-8.13 6.35-16.7z" fill="#42444d"/><path d="m4.39 59.61 3.37-8.61h22.08l4.49 8.45z" fill="#d44a4c"/><path d="m83.39 87.06 2.42-2.06a1.74 1.74 0 0 0 .59-1.07c.3-2.06 1.23-8.46 1.57-9.6.69-2.3 6-7.3 6-7.3l.65 4.37 2.31-1.57a1.78 1.78 0 0 1 2.56.61c1.46 2.59 3.82 7.69 2.29 11.3-1.78 4.02-10.78 9.13-14.21 10.93a1.76 1.76 0 0 1 -2.2-.46l-2.2-2.68a1.79 1.79 0 0 1 .22-2.47z" fill="#ffadad"/><path d="m15.11 67.75c9.33-6.69 35.3 30.7 35.3 30.7l31.92-13.52 6.75 8.41-39.7 25.13s-23.33-20.28-30.15-29-10.65-17.04-4.12-21.72z" fill="#ef6662"/></svg>