<svg viewBox="0 0 107.31 150" xmlns="http://www.w3.org/2000/svg"><path d="m1.07 81.92s-1.9 5.45-.64 9.32 2.57 2.49 2.57 2.49a6.08 6.08 0 0 1 -.67-3.73 7.69 7.69 0 0 1 .75-2.91l1.06 4.56a13.06 13.06 0 0 0 .69-2.3c.3-1.42-.72-4-.46-5.26s.71-2.8.71-2.8z" fill="#f7d3a9"/><path d="m77.67 10.43.32-2s-2.14-4.58-1.49-5.57a21.67 21.67 0 0 1 2.8-2.86l1.34.2s2.38 3 2.59 4-1.16 4.59-2.14 7.32z" fill="#f7d3a9"/><path d="m77.92 1.27 1.38-1.27a2.5 2.5 0 0 1 -.81 2.82z" fill="#f7d3a9"/><path d="m8.85 145.61-2.94 1.92-1.66-1.94 3.27-2.06z" fill="#f7d3a9"/><path d="m8.18 150a44.74 44.74 0 0 0 -3.93-4.41l-1.71.79s1.38 1.56 3 3.62z" fill="#d44a4c"/><path d="m49.88 71.92s8.85 8 9 37.6-8.37 40.48-8.37 40.48h-7.44s10.16-28.4-3.56-53.06c0 0-4.59 28.73-28.9 50.7l-5.87-6.11s17.92-22.02 18.06-49.53c0-5.45 1-8.22-1-14.32z" fill="#ef6662"/><path d="m44.88 38.57s23.12-6.11 29.02-21.92l3.31-7.19 4.41 1.44s-1.15 29.1-29.88 37l-.45 1.71a46.39 46.39 0 0 0 -.22 23.23l2.93 5.9-30.95 6.83s-3.87-14.82-.27-30.5c0 0-6.74-1.46-18 29.47l-4.37-.85s6.25-41.52 28.66-47.27z" fill="#fe9887"/><path d="m45.32 21.58 1.74 7.94a3.26 3.26 0 0 1 -2.57 3.88l-1.07.22-.42 5.55-7.91-.55 1.14-15.68z" fill="#f7d3a9"/><path d="m39 34.29s3.13-1.34 3.24-3.66c0 0-4.12-2.48-2.72-3.54s3.59 1.54 3.59 1.54-1.22-3.58-.68-4.45c0 0 5.8.4 5.1-3 0 0-1.51-1.55-5.14-2s-6.07 5.43-6.07 5.43z" fill="#42444d"/><path d="m41.46 19.47a4.58 4.58 0 0 0 -3.08-1 9.45 9.45 0 0 0 -7.22 3.33 9 9 0 0 0 -1.89 7.58 5 5 0 0 0 .67 1.72c.89 1.35 2.56 1.94 4.12 2.44 1.36.44 3.74 1.26 4.94.5 0 0-1.82-5.52-.66-8.84a22 22 0 0 1 3.12-5.73z" fill="#42444d"/><path d="m30.09 25.33a5.3 5.3 0 0 0 -7.17 1c-1 1.38-1.34 3.3-2.74 4.33-1.65 1.22-4 .65-6 .52a10.66 10.66 0 0 0 -9.48 4.27c-2 3-1.74 7.38 1 9.78a9.15 9.15 0 0 0 6.69 2 22.2 22.2 0 0 0 6.9-1.89c3.21-1.32 6.63-3.18 7.69-6.42.73-2.23.16-4.66.45-7a1.93 1.93 0 0 1 1-1.69 5.62 5.62 0 0 1 1.69 0 2.27 2.27 0 0 0 1.73-3 4.2 4.2 0 0 0 -3.09-2.37" fill="#42444d"/><g fill="#d44a4c"><path d="m53.58 124.89c0 .13-1.55.09-3.4.32s-3.34.61-3.38.48a7.92 7.92 0 0 1 3.32-.93 8 8 0 0 1 3.46.13z"/><path d="m54.54 122.49c0 .05-.31.34-.95.67a8.22 8.22 0 0 1 -5.49.63c-.7-.18-1.1-.39-1.08-.44a19.49 19.49 0 0 0 3.83.15 19.45 19.45 0 0 0 3.69-1.01z"/><path d="m26.87 119.5a4.58 4.58 0 0 1 -2.31-1.83 4.44 4.44 0 0 1 -1.13-2.67c.13 0 .55 1.18 1.5 2.42s2.07 1.97 1.94 2.08z"/><path d="m26.21 120.26c-.07 0-.16-.23-.49-.46s-.88-.53-1.45-.87a8.6 8.6 0 0 1 -2.05-1.3 5.35 5.35 0 0 1 2.29.92 6.68 6.68 0 0 1 1.43 1c.34.37.33.71.27.71z"/><path d="m46.32 99.19a4 4 0 0 1 -1.91-.27 37.58 37.58 0 0 1 -4.2-1.92c-1.61-.8-3.05-1.54-4.08-2.09a9.09 9.09 0 0 1 -1.64-1 7.38 7.38 0 0 1 1.78.7c1.07.48 2.54 1.17 4.15 2s3 1.57 4.1 2 1.81.51 1.8.58z"/></g><path d="m102.12 39.84-3.47 26.86-16.73 16.16-15 .21-5.45 9.47 2.19 8.55a28.8 28.8 0 0 1 -1.57 18.8l-3.47 10.59 32.78 3.78c1.07-24.89.57-26.92-3.5-41.07l19.36-25.07v-29.22z" fill="#ef6662"/><path d="m88.26 38.9c-1.63.89-12.14 27.73-12.14 27.73l.6 17.17-9.8 1.78v-19.67l17.13-30.16z" fill="#ef6662"/><path d="m79.74 66.48 3 7.74a3.33 3.33 0 0 1 -1.92 4.32l-1 .39.49 5.67-7.9.69-1.41-16.01z" fill="#f7d3a9"/><path d="m75.37 81.09s3-2.63 2.77-5c0 0-4.46-1.86-3.25-3.15s3.79 1 3.79 1-1.78-3.42-1.38-4.38c0 0 5.78-.51 4.55-3.84 0 0-1.73-1.32-5.39-1.21s-5.13 6.49-5.13 6.49z" fill="#42444d"/><path d="m77 64.92a11.05 11.05 0 0 0 -13.83 11.61c.21 2.47 1.23 5 .27 7.33a9 9 0 0 1 -2.44 2.94 50.1 50.1 0 0 0 -7.72 8c-2.13 3-3.51 6.81-2.92 10.49a8.73 8.73 0 0 0 1.89 4.29c.54.63 1.18 1.18 1.66 1.86 1.69 2.44.74 5.85 1.77 8.64 1.33 3.57 5.52 5.16 9.31 5.55 5.2.53 10.81-.58 14.65-4.13s5.26-9.89 2.31-14.21c-1.47-2.14-3.95-4-3.71-6.59.15-1.6 1.36-2.87 2.06-4.32a7.29 7.29 0 0 0 -2.1-8.68c-.94-.71-2.06-1.19-2.94-2a2.85 2.85 0 0 1 -.94-3.18c.4-.82 1.35-1.26 1.77-2.07.63-1.21-.14-2.68-1-3.72s-2-2.06-2.12-3.42a5.46 5.46 0 0 1 .88-2.94l2.88-5.37" fill="#42444d"/><path d="m58.62 130.48-2.59 19.52h17.44l1.19-5.62.98 5.62h17.65l-1.89-15.74z" fill="#fe9887"/><path d="m81.49 146.5c-.06.12-2.6-1.08-5.81-2.36s-5.89-2.16-5.85-2.28a6.58 6.58 0 0 1 1.81.4c1.09.31 2.59.81 4.21 1.45s3 1.31 4.06 1.84a6.35 6.35 0 0 1 1.58.95z" fill="#d44a4c"/><path d="m73.11 149.21a20.35 20.35 0 0 1 -2.27-.43c-1.39-.29-3.32-.63-5.47-.93s-4.1-.51-5.52-.68a12.43 12.43 0 0 1 -2.28-.36 13.93 13.93 0 0 1 2.31.08c1.42.1 3.38.27 5.54.57a52.79 52.79 0 0 1 5.48 1 10.66 10.66 0 0 1 2.21.75z" fill="#d44a4c"/><path d="m93 148.71a15.45 15.45 0 0 1 -2.6.22c-1.61.08-3.83.19-6.28.34s-4.67.32-6.27.43a18.57 18.57 0 0 1 -2 .13c0-.06.4-.25 2-.45s3.82-.42 6.27-.57 4.69-.21 6.3-.21a14 14 0 0 1 2.58.11z" fill="#d44a4c"/><path d="m92 138.57c0 .05-.37.29-1.09.41a4.72 4.72 0 0 1 -4.84-2.31c-.35-.63-.41-1.09-.36-1.1s.24.38.64.92a5.07 5.07 0 0 0 4.53 2.16 6.33 6.33 0 0 1 1.12-.08z" fill="#d44a4c"/><path d="m91 150a32.44 32.44 0 0 1 -.93-5.37 33.75 33.75 0 0 1 -.47-5.41 32.44 32.44 0 0 1 .93 5.37 33.83 33.83 0 0 1 .47 5.41z" fill="#d44a4c"/><path d="m87.36 38.9s4.61-2.48 4.55-2.79c-.2-.91-2.66.22-2.66.22s3.76-3.92 3.18-4.47c-.36-.34-2.66 1.66-2.66 1.66s1.45-2.34 1-2.84-2.59 2.25-2.59 2.25.79-1.77.33-2.2-4.51 6.79-4.51 6.79z" fill="#f7d3a9"/><path d="m102.87 39.9s-2-4.86-1.7-5.06c.74-.57 1.9 1.88 1.9 1.88s-.37-5.42.43-5.47c.49 0 1 3 1 3s.39-2.72 1.06-2.82.54 3.39.54 3.39.53-1.86 1.15-1.89c.44 0-.91 8.07-.91 8.07z" fill="#f7d3a9"/></svg>